# xmcd
#
# Track frame offsets: 
#        150
#        21144
#        37634
#        57677
#        84127
#        97675
#        115309
#        139941
#        167433
#        189388
#        210695
#        232716
#        246628
#        262462
#        279526
#        298567
#        317980
#        337281
#
# Disc length: 4755 seconds
#
# Revision: 0
# Processed by: cddbd v1.5.2PL0 Copyright (c) Steve Scherf et al.
# Submitted via: ExactAudioCopy v1.3
#
DISCID=08129112
DTITLE=Various Artist - Akella Presents - vol.207 - Blues-Rock (men +
DTITLE=women)  CD1
DYEAR=2019
DGENRE=Blues
TTITLE0=Caes De Aluguel - The Ballad of the Barbarians
TTITLE1=Oria - I Had to Go Thru Hell
TTITLE2=Scotty Bratcher - Worry Me No More
TTITLE3=Eliza Neals - Livin With Yo Mama
TTITLE4=Greta Van Fleet - Highway Tune
TTITLE5=The Sieve and the Saddle - Royal Affair
TTITLE6=The Moon Dogs - Baby Please Don't Go
TTITLE7=Miss Bee and the Bullfrogs - Ain't Nobody's Business
TTITLE8=Steve Fister - Zig Zag Talk
TTITLE9=Deborah Bonham - Lightning Ray
TTITLE10=Bad Touch - No Excuse
TTITLE11=My My Snake Eyes - On A Good Day
TTITLE12=Tyler Bryant - Without You
TTITLE13=Pristine - Pistols and Petticoats
TTITLE14=Ruud Cooty - Shoot'em Up
TTITLE15=The Blue Flames - I Just Want To Make Love To You
TTITLE16=Late Night Union - War On Love
TTITLE17=Jessy Wilson - Waiting On
EXTD=
EXTT0=
EXTT1=
EXTT2=
EXTT3=
EXTT4=
EXTT5=
EXTT6=
EXTT7=
EXTT8=
EXTT9=
EXTT10=
EXTT11=
EXTT12=
EXTT13=
EXTT14=
EXTT15=
EXTT16=
EXTT17=
PLAYORDER=
